PathFileType	4	(X/Y/Z)	/Users/itak/Documents/Research/Walk-IL/dataset/trc/00467_00167.trc
DataRate	CameraRate	NumFrames	NumMarkers	Units	OrigDataRate	OrigDataStartFrame	OrigNumFrames
100.000000	100.000000	4	53	mm	100.000000	304	608
Frame#	Time	RPSI			LPSI			L3			STRN			T10			C7			CLAV			RBAK			LBAK			LSHO			LUPA			LAEL			LAOL			LWTS			LWPS			LFRA			LIFD			LHPS			LHTS			RSHO			RUPA			RAEL			RAOL			RWTS			RWPS			RFRA			RIFD			RHTS			RHPS			RBHD			LFHD			RFHD			LBHD			LHIP			RHIP			RASI			LASI			LKNE			LTHI			LANK			LTIP			LTOE			LMT1			LMT5			LHEE			RKNE			RTHI			RANK			RTIP			RTOE			RMT1			RMT5			RHEE			
		X1	Y1	Z1	X2	Y2	Z2	X3	Y3	Z3	X4	Y4	Z4	X5	Y5	Z5	X6	Y6	Z6	X7	Y7	Z7	X8	Y8	Z8	X9	Y9	Z9	X10	Y10	Z10	X11	Y11	Z11	X12	Y12	Z12	X13	Y13	Z13	X14	Y14	Z14	X15	Y15	Z15	X16	Y16	Z16	X17	Y17	Z17	X18	Y18	Z18	X19	Y19	Z19	X20	Y20	Z20	X21	Y21	Z21	X22	Y22	Z22	X23	Y23	Z23	X24	Y24	Z24	X25	Y25	Z25	X26	Y26	Z26	X27	Y27	Z27	X28	Y28	Z28	X29	Y29	Z29	X30	Y30	Z30	X31	Y31	Z31	X32	Y32	Z32	X33	Y33	Z33	X34	Y34	Z34	X35	Y35	Z35	X36	Y36	Z36	X37	Y37	Z37	X38	Y38	Z38	X39	Y39	Z39	X40	Y40	Z40	X41	Y41	Z41	X42	Y42	Z42	X43	Y43	Z43	X44	Y44	Z44	X45	Y45	Z45	X46	Y46	Z46	X47	Y47	Z47	X48	Y48	Z48	X49	Y49	Z49	X50	Y50	Z50	X51	Y51	Z51	X52	Y52	Z52	X53	Y53	Z53	

305	3.04	211.9166564941406	935.3153076171875	-519.2970581054688	285.2891540527344	954.27587890625	-643.4424438476562	246.9225463867188	1051.445434570312	-559.0217895507812	424.7853393554688	1239.154296875	-350.2142639160156	229.8770751953125	1175.013671875	-561.7606201171875	244.7431945800781	1437.226806640625	-480.1906433105469	383.4626159667969	1349.94384765625	-358.9724426269531	151.7031402587891	1302.880493164062	-476.54443359375	309.1546630859375	1407.55126953125	-574.5842895507812	429.7631225585938	1442.389038085938	-536.746337890625	531.191162109375	1343.539916992188	-596.2874755859375	610.4999389648438	1143.511474609375	-537.45703125	543.75048828125	1094.307983398438	-600.903564453125	532.4386596679688	1052.122802734375	-348.8978576660156	588.5735473632812	1007.295043945312	-368.5435485839844	608.11669921875	1088.569091796875	-462.7619323730469	547.31640625	936.4696044921875	-237.8995208740234	589.311767578125	959.420166015625	-313.1291198730469	541.0726318359375	1000.821838378906	-278.1624450683594	174.7872467041016	1387.390747070312	-325.6169128417969	105.0649948120117	1326.2060546875	-297.9818420410156	48.23801803588867	1043.597290039062	-312.2455749511719	36.11055755615234	1048.156372070312	-378.9541625976562	123.615852355957	822.484619140625	-348.1058959960938	36.12856674194336	822.571044921875	-332.67919921875	36.07704544067383	985.9534301757812	-317.4991455078125	85.8568115234375	672.7357177734375	-380.8946533203125	109.6085357666016	725.8111572265625	-362.3671569824219	31.90911865234375	737.3119506835938	-351.5740661621094	188.7593078613281	1600.1201171875	-371.4136657714844	373.6864929199219	1658.708251953125	-301.2035827636719	257.1385498046875	1624.150512695312	-254.5216217041016	339.7153625488281	1651.078735351562	-449.9557495117188	480.398681640625	891.3052368164062	-682.7412719726562	273.4469604492188	821.7254028320312	-342.529052734375	377.2271728515625	886.7218627929688	-347.8346557617188	513.6815185546875	928.7774658203125	-559.5118408203125	654.3473510742188	514.0992431640625	-680.8858642578125	631.8966674804688	664.1746215820312	-672.190673828125	458.968994140625	229.3833160400391	-931.9169311523438	606.767822265625	398.3982238769531	-779.5540161132812	618.174560546875	100.0202026367188	-814.7849731445312	542.1644897460938	125.8356399536133	-807.4267578125	589.197998046875	160.746826171875	-901.8935546875	392.1341552734375	231.5255126953125	-890.2601928710938	440.219970703125	461.9028930664062	-392.9822082519531	356.083251953125	700.7748413085938	-329.2835998535156	443.2512817382812	44.22911071777344	-432.7296142578125	470.5708923339844	320.5674133300781	-400.0284118652344	662.829833984375	36.29536819458008	-480.0013122558594	595.2396850585938	44.10457992553711	-515.281494140625	574.4954833984375	42.61385726928711	-407.6727600097656	377.7339477539062	39.8261604309082	-477.3320007324219	
306	3.05	218.5697021484375	936.7918701171875	-523.855224609375	297.0267639160156	956.0946655273438	-644.8628540039062	255.5009155273438	1053.005737304688	-561.7138671875	424.9586791992188	1239.457641601562	-345.2481384277344	239.1735229492188	1176.624877929688	-565.107177734375	251.9187622070312	1438.736083984375	-482.6153259277344	384.7278137207031	1350.529174804688	-355.6571350097656	157.8658447265625	1304.815063476562	-483.3352966308594	320.3388671875	1408.724975585938	-574.039306640625	439.5649719238281	1442.791748046875	-531.0879516601562	542.6069946289062	1343.2021484375	-586.8464965820312	616.636962890625	1141.595336914062	-526.86083984375	552.0654907226562	1093.6015625	-593.4756469726562	528.5269165039062	1052.141357421875	-342.1643981933594	584.6309204101562	1006.343688964844	-359.4124450683594	609.8487548828125	1086.815551757812	-452.3826293945312	537.9945068359375	937.2055053710938	-230.0479736328125	582.8779907226562	959.1319580078125	-303.8685607910156	533.9419555664062	1001.367797851562	-270.9255981445312	174.9324798583984	1388.9091796875	-331.3731079101562	103.6168365478516	1328.070678710938	-306.6444396972656	46.38571548461914	1045.34228515625	-323.7815246582031	37.92591094970703	1049.602294921875	-391.0901794433594	123.1305618286133	824.2171630859375	-354.3573608398438	34.88156127929688	824.4249267578125	-343.96630859375	34.33978271484375	987.6882934570312	-329.4117736816406	87.40370178222656	674.1134033203125	-386.7933044433594	109.8610916137695	727.34716796875	-367.6558532714844	31.82359886169434	738.9114379882812	-361.83642578125	192.0226593017578	1601.484497070312	-375.9435729980469	374.0896301269531	1659.808349609375	-298.28955078125	255.6675567626953	1625.37646484375	-256.3532409667969	346.0681457519531	1652.257446289062	-448.2880249023438	493.9048156738281	893.1459350585938	-676.1607666015625	272.6694641113281	822.2352294921875	-345.29833984375	376.8467712402344	886.8955688476562	-346.3146057128906	521.8558349609375	929.9691162109375	-551.7012939453125	671.2211303710938	517.712158203125	-664.2285766601562	646.6903076171875	666.89990234375	-656.8756713867188	494.7820434570312	234.0636596679688	-929.83837890625	630.97216796875	402.5831909179688	-766.7293090820312	648.775146484375	106.2566986083984	-803.8956298828125	571.8763427734375	130.4594421386719	-801.282470703125	624.2202758789062	167.5623168945312	-891.936767578125	425.2716369628906	234.3555450439453	-892.3946533203125	439.6786193847656	461.9641723632812	-392.527099609375	354.5244445800781	700.8795166015625	-330.0612487792969	443.2224426269531	44.58173370361328	-433.5137329101562	470.1111755371094	320.6571350097656	-399.4988708496094	663.3402099609375	36.11849975585938	-479.6823425292969	595.7185668945312	44.37421798706055	-514.9348754882812	574.3533325195312	42.56227493286133	-407.427978515625	378.0621948242188	40.24216842651367	-478.766357421875	
307	3.06	225.3173675537109	938.2889404296875	-528.6998291015625	308.8780517578125	957.9675903320312	-646.1970825195312	264.1681518554688	1054.607543945312	-564.466064453125	424.6484680175781	1239.7841796875	-340.4732971191406	248.5850372314453	1178.274536132812	-568.5068969726562	259.1874694824219	1440.267456054688	-485.1412963867188	385.6172790527344	1351.151611328125	-352.4919738769531	164.2247772216797	1306.833862304688	-490.4011840820312	331.5587768554688	1409.863037109375	-573.3305053710938	449.1456909179688	1443.078369140625	-525.1557006835938	553.7332153320312	1342.708740234375	-576.8082275390625	622.29052734375	1139.526489257812	-515.781005859375	560.0643310546875	1092.79638671875	-585.5670166015625	524.1864013671875	1051.975463867188	-335.5831909179688	580.1055908203125	1005.144775390625	-350.4034423828125	611.041748046875	1084.88916015625	-441.8060607910156	527.6159057617188	937.7186889648438	-222.7567138671875	575.564453125	958.5010375976562	-294.899658203125	526.069580078125	1001.663757324219	-264.0802307128906	175.0822906494141	1390.503173828125	-337.6569213867188	102.3383636474609	1330.026611328125	-316.0599670410156	44.77549362182617	1047.154663085938	-335.9709777832031	40.06872177124023	1051.029907226562	-403.6522216796875	122.602294921875	826.04052734375	-360.8465881347656	33.92350769042969	826.3037719726562	-355.6798706054688	32.87356948852539	989.4749755859375	-341.9269104003906	89.118408203125	675.5746459960938	-392.7923278808594	110.1340637207031	728.9951171875	-373.0645446777344	32.03349304199219	740.5194091796875	-372.4541320800781	195.3453521728516	1602.91162109375	-380.617431640625	374.2377624511719	1660.822387695312	-295.4887084960938	254.1256408691406	1626.528442382812	-258.4314575195312	352.2899169921875	1653.470336914062	-446.4900207519531	507.2409057617188	894.9507446289062	-669.0440063476562	271.5603637695312	822.788330078125	-348.5944213867188	375.9452514648438	887.1097412109375	-345.1627807617188	529.4952392578125	931.0407104492188	-543.6025390625	686.8992309570312	521.1439819335938	-646.7316284179688	660.57275390625	669.5233154296875	-640.5941162109375	529.2460327148438	239.2890930175781	-925.7779541015625	653.86181640625	406.8406066894531	-752.7001953125	677.3677978515625	112.6133804321289	-791.3887329101562	599.969482421875	135.4526519775391	-793.5606689453125	657.3968505859375	174.6475524902344	-880.1226196289062	457.5080261230469	238.0535736083984	-892.7286376953125	438.9913330078125	462.113037109375	-392.2422485351562	352.6337585449219	701.0621337890625	-331.2018127441406	443.1865844726562	44.95172500610352	-434.5458374023438	469.5080871582031	320.8226623535156	-399.0717468261719	663.9529418945312	35.90174102783203	-479.3077392578125	596.3124389648438	44.67710113525391	-514.57275390625	574.187744140625	42.52841567993164	-407.2343139648438	378.4736022949219	40.72367858886719	-480.55224609375	
308	3.07	232.1961822509766	939.8269653320312	-533.8599243164062	320.884765625	959.9148559570312	-647.4291381835938	272.9286804199219	1056.239379882812	-567.3063354492188	423.8689880371094	1240.163208007812	-335.9163208007812	258.1320190429688	1179.9755859375	-571.9029541015625	266.555419921875	1441.84423828125	-487.729248046875	386.1501770019531	1351.83984375	-349.5021667480469	170.8098754882812	1308.969116210938	-497.6959838867188	342.7915954589844	1410.9736328125	-572.4410400390625	458.4546203613281	1443.286499023438	-518.9671630859375	564.457763671875	1342.086303710938	-566.2463989257812	627.4093017578125	1137.356811523438	-504.3018798828125	567.657470703125	1091.923828125	-577.1961059570312	519.4984741210938	1051.66357421875	-329.1736145019531	575.0648193359375	1003.739074707031	-341.5662841796875	611.6987915039062	1082.833374023438	-431.1192932128906	516.2340087890625	937.989990234375	-216.1829528808594	567.40869140625	957.5315551757812	-286.3269348144531	517.5196533203125	1001.705078125	-257.7054138183594	175.2990264892578	1392.194213867188	-344.4434509277344	101.3307876586914	1332.081909179688	-326.2010192871094	43.50297927856445	1049.03759765625	-348.7314453125	42.60127258300781	1052.448974609375	-416.5507202148438	122.093994140625	827.9572143554688	-367.5149536132812	33.32871246337891	828.2169799804688	-367.7136535644531	31.78227615356445	991.3243408203125	-354.9692077636719	90.94823455810547	677.1365966796875	-398.8988647460938	110.4313125610352	730.75732421875	-378.6091613769531	32.57354354858398	742.1541748046875	-383.3431091308594	198.7320709228516	1604.423706054688	-385.4072265625	374.1347351074219	1661.762573242188	-292.7962646484375	252.5276489257812	1627.623168945312	-260.7532348632812	358.3669738769531	1654.7392578125	-444.5493469238281	520.4119873046875	896.7650146484375	-661.31396484375	270.1303405761719	823.3759765625	-352.4742736816406	374.4707336425781	887.3824462890625	-344.3695983886719	536.566162109375	932.0098266601562	-535.1781005859375	701.2691040039062	524.3871459960938	-628.4969482421875	673.48779296875	672.0901489257812	-623.4071044921875	562.1637573242188	244.9657897949219	-919.75	675.287353515625	411.1175231933594	-737.5462036132812	703.8646240234375	119.0157775878906	-777.4706420898438	626.3547973632812	140.7231750488281	-784.349365234375	688.5292358398438	181.9016876220703	-866.619873046875	488.6169128417969	242.4550323486328	-891.1947021484375	438.13623046875	462.3526000976562	-392.1282958984375	350.3797607421875	701.306396484375	-332.7443542480469	443.1341857910156	45.33259201049805	-435.8384704589844	468.7337341308594	321.0597534179688	-398.7403869628906	664.678466796875	35.63844299316406	-478.8632202148438	597.0286865234375	45.02983093261719	-514.18310546875	574.0031127929688	42.50479125976562	-407.0902404785156	378.9811706542969	41.29403305053711	-482.7174987792969	
